<?xml version="1.0"?>
<svg xmlns="http://www.w3.org/2000/svg" id="Layer_1" data-name="Layer 1" viewBox="0 0 64 64"><path d="M43.687,13.053a1,1,0,0,0-.694-.28H19.962l1.386-1.939a1,1,0,0,0-.2-1.369L15.025,4.683a1,1,0,0,0-1.428.206L2.187,20.829A1,1,0,0,0,2.4,22.208l6.208,4.7a1,1,0,0,0,.6.2,1.07,1.07,0,0,0,.15-.011,1,1,0,0,0,.663-.408l2.149-3.007,4.092,3.676a11.6,11.6,0,0,0,13.805,1.253l1.028-.626a3.015,3.015,0,0,1,1.62-.463h4.35a7.218,7.218,0,0,0,4.98-2.02L52.8,32.669a4.486,4.486,0,0,0,3.557.621l4.887-1.209a1,1,0,0,0,.453-1.691ZM8.992,24.691,4.38,21.2,14.616,6.9l4.547,3.55Zm46.88,6.658a2.483,2.483,0,0,1-1.967-.344L43.276,23.92a6.184,6.184,0,0,0,.343-.673l1.091-2.472a1,1,0,0,0-.915-1.4H29a1,1,0,0,0,0,2H42.261l-.479,1.083a4.627,4.627,0,0,1-.678,1.122,5.185,5.185,0,0,1-4.039,1.946h-4.35a5,5,0,0,0-2.676.764l-1.016.619A9.6,9.6,0,0,1,17.6,25.872l-4.259-3.826,5.195-7.273H42.59L59,30.575Z"/><path d="M33.954,46.965a16.646,16.646,0,0,1-2.706,4.312c-2.048,2.414-2.163,4.8-.326,6.7a4.572,4.572,0,0,0,3.323,1.555,5.317,5.317,0,0,0,2.887-.955,2.724,2.724,0,0,1,2.974,0,4.525,4.525,0,0,0,6.21-.6c1.838-1.91,1.722-4.291-.326-6.7a16.693,16.693,0,0,1-2.707-4.313l-.032-.078a5.022,5.022,0,0,0-9.3.079Zm7.451.693.923-.386-.89.465a18.684,18.684,0,0,0,3.027,4.834c2.007,2.364.847,3.569.41,4.023-.687.714-1.813,1.525-3.677.311a4.726,4.726,0,0,0-5.158,0c-1.862,1.212-2.991.4-3.677-.311-.436-.453-1.595-1.658.41-4.023a18.794,18.794,0,0,0,3.06-4.913,3.02,3.02,0,0,1,5.572,0Z"/><path d="M36.183,35.045a3.755,3.755,0,0,0-6.627,3.525c.427.8,3.358,4.6,5.69,4.6a1.879,1.879,0,0,0,.89-.217c1-.532,1.371-1.9,1.1-4.069A12.975,12.975,0,0,0,36.183,35.045Zm-1,6.119c-.833-.05-3.217-2.315-3.866-3.533a1.7,1.7,0,0,1,.781-2.266,1.835,1.835,0,0,1,.865-.218,1.621,1.621,0,0,1,1.45.837C35.049,37.17,35.6,40.456,35.187,41.164Z"/><path d="M26.419,41a3.515,3.515,0,0,0-2.912,3.684,3.058,3.058,0,0,0,1.153,2.205A10.528,10.528,0,0,0,27.7,48.32a6.7,6.7,0,0,0,1.888.324,2.148,2.148,0,0,0,1.792-.73c1.438-1.819-1.6-5.551-2.55-6.3A3.061,3.061,0,0,0,26.419,41Zm3.354,5.644A7.953,7.953,0,0,1,25.9,45.32a1.08,1.08,0,0,1-.4-.785,1.512,1.512,0,0,1,1.233-1.56,1.213,1.213,0,0,1,.2-.017,1.056,1.056,0,0,1,.658.222A7.977,7.977,0,0,1,29.773,46.644Z"/><path d="M46.076,33.4a3.7,3.7,0,0,0-5.02,1.446A12.982,12.982,0,0,0,40,38.682c-.272,2.167.1,3.536,1.1,4.069a1.871,1.871,0,0,0,.889.216c2.332,0,5.263-3.79,5.691-4.594a3.553,3.553,0,0,0,.23-2.807A3.8,3.8,0,0,0,46.076,33.4Zm-.159,4.032c-.648,1.218-3.033,3.483-3.865,3.533-.411-.707.137-3.993.769-5.179a1.62,1.62,0,0,1,1.45-.838,1.839,1.839,0,0,1,.866.218,1.806,1.806,0,0,1,.877,1.026A1.575,1.575,0,0,1,45.917,37.433Z"/><path d="M45.857,47.716a2.2,2.2,0,0,0,1.816.724,10.107,10.107,0,0,0,4.906-1.749,3.275,3.275,0,0,0,.4-4.605A3.452,3.452,0,0,0,50.819,40.8a3.061,3.061,0,0,0-2.412.612C47.456,42.166,44.419,45.9,45.857,47.716Zm3.79-4.734a1.094,1.094,0,0,1,.856-.2,1.459,1.459,0,0,1,.909.549,1.281,1.281,0,0,1-.073,1.8,8,8,0,0,1-3.874,1.324A7.986,7.986,0,0,1,49.647,42.982Z"/></svg>
