<svg version="1.1" id="Capa_1" xmlns="http://www.w3.org/2000/svg" xmlns:xlink="http://www.w3.org/1999/xlink" x="0px" y="0px" viewBox="0 0 512 512" style="enable-background:new 0 0 512 512;" xml:space="preserve">
<g>
	<g>
		<path style="fill:none;stroke:#000000;stroke-width:15;stroke-linecap:round;stroke-linejoin:round;stroke-miterlimit:10;" d="&#10;&#9;&#9;&#9;M337.213,191.859l38.378,20.176c8.552,4.496,18.547-2.766,16.914-12.289l-7.329-42.734c-0.649-3.781,0.605-7.64,3.353-10.318&#10;&#9;&#9;&#9;l31.048-30.264c6.919-6.744,3.101-18.494-6.46-19.883l-42.907-6.235c-3.797-0.552-7.079-2.936-8.777-6.377l-19.189-38.881&#10;&#9;&#9;&#9;c-4.276-8.664-16.631-8.664-20.906,0l-19.189,38.881c-1.698,3.44-4.98,5.825-8.777,6.377l-42.907,6.235&#10;&#9;&#9;&#9;c-9.561,1.389-13.379,13.139-6.46,19.883l31.048,30.264c2.747,2.678,4.001,6.537,3.353,10.318l-7.329,42.734&#10;&#9;&#9;&#9;c-1.633,9.523,8.362,16.785,16.914,12.289l38.378-20.176C329.76,190.074,333.817,190.074,337.213,191.859z"/>
		<path style="fill:none;stroke:#000000;stroke-width:15;stroke-linecap:round;stroke-linejoin:round;stroke-miterlimit:10;" d="&#10;&#9;&#9;&#9;M381.498,33.273c7.48,5.482,14.088,12.09,19.581,19.57c1.219,1.66,3.716,1.66,4.936,0c5.493-7.48,12.102-14.087,19.581-19.57&#10;&#9;&#9;&#9;c1.662-1.219,1.664-3.717,0.002-4.937c-7.48-5.494-14.09-12.104-19.584-19.585c-1.219-1.66-3.716-1.66-4.936,0&#10;&#9;&#9;&#9;c-5.494,7.481-12.103,14.09-19.584,19.585C379.834,29.556,379.835,32.055,381.498,33.273z"/>
		<path style="fill:none;stroke:#000000;stroke-width:15;stroke-linecap:round;stroke-linejoin:round;stroke-miterlimit:10;" d="&#10;&#9;&#9;&#9;M428.507,181.632c9.973,7.31,18.784,16.12,26.109,26.093c1.626,2.214,4.955,2.214,6.581,0&#10;&#9;&#9;&#9;c7.325-9.973,16.136-18.783,26.109-26.093c2.217-1.625,2.218-4.956,0.003-6.583c-9.974-7.326-18.786-16.139-26.112-26.113&#10;&#9;&#9;&#9;c-1.626-2.214-4.955-2.214-6.581,0c-7.325,9.974-16.138,18.787-26.112,26.113C426.289,176.676,426.291,180.008,428.507,181.632z"/>
		<path style="fill:none;stroke:#000000;stroke-width:15;stroke-linecap:round;stroke-linejoin:round;stroke-miterlimit:10;" d="&#10;&#9;&#9;&#9;M195.112,173.049c7.481,5.484,14.091,12.093,19.586,19.575c1.22,1.661,3.717,1.661,4.937,0&#10;&#9;&#9;&#9;c5.495-7.482,12.105-14.091,19.586-19.575c1.663-1.219,1.664-3.718,0.002-4.939c-7.482-5.496-14.093-12.107-19.589-19.59&#10;&#9;&#9;&#9;c-1.22-1.661-3.717-1.661-4.937,0c-5.495,7.483-12.106,14.094-19.589,19.59C193.448,169.331,193.449,171.83,195.112,173.049z"/>
		
			<line style="fill:none;stroke:#000000;stroke-width:15;stroke-linecap:round;stroke-linejoin:round;stroke-miterlimit:10;" x1="240.471" y1="302.591" x2="211.972" y2="302.591"/>
		<path style="fill:none;stroke:#000000;stroke-width:15;stroke-linecap:round;stroke-linejoin:round;stroke-miterlimit:10;" d="&#10;&#9;&#9;&#9;M213.196,255.991h-20.981c-26.522,0-51.957,10.536-70.711,29.289L8.964,397.82c-0.938,0.938-1.464,2.209-1.464,3.536v98.136&#10;&#9;&#9;&#9;c0,2.761,2.238,5,5,5l59.172,0.003c1.555,0,3.021-0.723,3.967-1.956l72.806-94.882c12.311-16.044,33.075-23.092,52.609-17.858&#10;&#9;&#9;&#9;l98.32,26.345c5.935,1.59,12.183,1.59,18.118,0l179.593-48.124c5.334-1.429,8.5-6.912,7.071-12.246l-2.753-10.282&#10;&#9;&#9;&#9;c-3.57-13.33-17.28-21.25-30.62-17.68l-142.231,38.113c-12.078,3.237-24.966-0.217-33.808-9.059l-54.274-54.274h49.682&#10;&#9;&#9;&#9;c6.43,0,12.26-2.61,16.48-6.82c4.28-4.29,6.906-10.232,6.818-16.799c-0.172-12.83-10.992-22.981-23.823-22.981h-41.433"/>
		
			<line style="fill:none;stroke:#000000;stroke-width:15;stroke-linecap:round;stroke-linejoin:round;stroke-miterlimit:10;" x1="320.332" y1="329.839" x2="287.873" y2="348.579"/>
		<path style="fill:none;stroke:#000000;stroke-width:15;stroke-linecap:round;stroke-linejoin:round;stroke-miterlimit:10;" d="&#10;&#9;&#9;&#9;M425.306,303.945l-2.531-4.384c-6.904-11.957-22.193-16.054-34.151-9.151l-36.766,21.227"/>
		<path style="fill:none;stroke:#000000;stroke-width:15;stroke-linecap:round;stroke-linejoin:round;stroke-miterlimit:10;" d="&#10;&#9;&#9;&#9;M474.001,326.162l-8.794-15.232c-6.904-11.957-22.193-16.054-34.151-9.151l-111.434,64.336"/>
	</g>
</g>
<g>
</g>
<g>
</g>
<g>
</g>
<g>
</g>
<g>
</g>
<g>
</g>
<g>
</g>
<g>
</g>
<g>
</g>
<g>
</g>
<g>
</g>
<g>
</g>
<g>
</g>
<g>
</g>
<g>
</g>
</svg>