<?xml version="1.0" encoding="UTF-8" standalone="no"?>
<!-- Created with Inkscape (http://www.inkscape.org/) -->

<svg
   version="1.1"
   id="svg4623"
   xml:space="preserve"
   width="682.66669"
   height="682.66669"
   viewBox="0 0 682.66669 682.66669"
   xmlns="http://www.w3.org/2000/svg"
   xmlns:svg="http://www.w3.org/2000/svg"><defs
     id="defs4627"><clipPath
       clipPathUnits="userSpaceOnUse"
       id="clipPath4637"><path
         d="M 0,512 H 512 V 0 H 0 Z"
         id="path4635" /></clipPath></defs><g
     id="g4629"
     transform="matrix(1.3333333,0,0,-1.3333333,0,682.66667)"><g
       id="g4631"><g
         id="g4633"
         clip-path="url(#clipPath4637)"><g
           id="g4639"
           transform="translate(243.7784,108.4389)"><path
             d="m 0,0 h 85.167 c 16.128,0 29.203,13.075 29.203,29.203 v 0.001 c 0,16.128 -13.075,29.203 -29.203,29.203 H 25.416 L -9.475,73.863 c -13.733,6.084 -28.588,9.226 -43.609,9.226 h -1.157 c -23.174,0 -45.73,-7.476 -64.315,-21.319 l -115.222,-85.82"
             style="fill:none;stroke:#000000;stroke-width:20;stroke-linecap:round;stroke-linejoin:round;stroke-miterlimit:10;stroke-dasharray:none;stroke-opacity:1"
             id="path4641" /></g><g
           id="g4643"
           transform="translate(378.6319,56.124)"><path
             d="m 0,0 -24.136,-10.991 c -21.911,-9.977 -45.707,-15.14 -69.782,-15.14 h -160.724 l -19.657,-19.991"
             style="fill:none;stroke:#000000;stroke-width:20;stroke-linecap:round;stroke-linejoin:round;stroke-miterlimit:10;stroke-dasharray:none;stroke-opacity:1"
             id="path4645" /></g><g
           id="g4647"
           transform="translate(323.3468,108.4389)"><path
             d="m 0,0 h 8.084 c 7.204,0 14.335,1.445 20.972,4.248 L 137.589,50.1 c 12.944,5.469 27.948,1.067 35.887,-10.527 v 0 c 10.372,-15.148 4.57,-35.986 -12.138,-43.594 l -24.142,-10.994"
             style="fill:none;stroke:#000000;stroke-width:20;stroke-linecap:round;stroke-linejoin:round;stroke-miterlimit:10;stroke-dasharray:none;stroke-opacity:1"
             id="path4649" /></g><g
           id="g4651"
           transform="translate(330.1256,384.1518)"><path
             d="m 0,0 c -13.255,0 -24,-10.745 -24,-24 v 0 c 0,-13.255 10.745,-24 24,-24"
             style="fill:none;stroke:#000000;stroke-width:20;stroke-linecap:round;stroke-linejoin:round;stroke-miterlimit:10;stroke-dasharray:none;stroke-opacity:1"
             id="path4653" /></g><g
           id="g4655"
           transform="translate(349.2221,280.1518)"><path
             d="m 0,0 c 26.51,0 48,21.49 48,48 v 8 0 c 0,26.51 -21.49,48 -48,48"
             style="fill:none;stroke:#000000;stroke-width:20;stroke-linecap:round;stroke-linejoin:round;stroke-miterlimit:10;stroke-dasharray:none;stroke-opacity:1"
             id="path4657" /></g><g
           id="g4659"
           transform="translate(329.7854,448.1518)"><path
             d="m 0,0 c -46.392,0 -84,-37.608 -84,-84 v 0 c 0,-46.392 37.608,-84 84,-84"
             style="fill:none;stroke:#000000;stroke-width:20;stroke-linecap:round;stroke-linejoin:round;stroke-miterlimit:10;stroke-dasharray:none;stroke-opacity:1"
             id="path4661" /></g><g
           id="g4663"
           transform="translate(339.666,448.1518)"><path
             d="m 0,0 h 7.774 c 64.065,0 116,-51.935 116,-116 v 0 c 0,-64.065 -51.935,-116 -116,-116 H 0 V 53.846 h -127.438"
             style="fill:none;stroke:#000000;stroke-width:20;stroke-linecap:round;stroke-linejoin:round;stroke-miterlimit:10;stroke-dasharray:none;stroke-opacity:1"
             id="path4665" /></g><g
           id="g4667"
           transform="translate(419.6075,74.7378)"><path
             d="M 0,0 V 0"
             style="fill:none;stroke:#000000;stroke-width:20;stroke-linecap:round;stroke-linejoin:round;stroke-miterlimit:10;stroke-dasharray:none;stroke-opacity:1"
             id="path4669" /></g></g></g></g></svg>
