<svg id="Layer_2" enable-background="new 0 0 512 512" viewBox="0 0 512 512" xmlns="http://www.w3.org/2000/svg"><g><g style="fill:none;stroke:#474747;stroke-linecap:round;stroke-linejoin:round;stroke-miterlimit:10;stroke-width:15"><g><circle cx="255.454" cy="268.741" r="38.014"/><g><path d="m292.117 314.484 14.213 5.133c8.981 3.243 16.44 9.703 20.933 18.13l26.013 48.788 75.507 27.827c8.446 3.112 12.503 12.715 8.847 20.94-3.268 7.352-11.597 11.005-19.219 8.43l-85.609-28.927-33.675-43.2 14.831 116.576"/><path d="m218.791 314.484-14.213 5.133c-8.982 3.243-16.44 9.703-20.933 18.13l-26.013 48.788-75.507 27.827c-8.446 3.112-12.503 12.715-8.847 20.94 3.268 7.352 11.597 11.005 19.219 8.43l85.609-28.927 33.675-43.2-14.832 116.575"/></g></g><path d="m106.062 344.238c-6.683-17.548-10.343-36.588-10.343-56.483 0-87.667 71.068-158.735 158.735-158.735s158.735 71.068 158.735 158.735c0 20.836-4.014 40.734-11.312 58.963"/><g><path d="m62.753 287.755h-52.329"/><path d="m500.91 287.755h-54.756"/></g></g><g><path d="m446.993 95.216-56.986 56.986" style="fill:none;stroke:#474747;stroke-linecap:round;stroke-linejoin:round;stroke-miterlimit:10;stroke-width:15"/></g><g style="fill:none;stroke:#474747;stroke-linecap:round;stroke-linejoin:round;stroke-miterlimit:10;stroke-width:15"><path d="m78.207 363.161-28.909 12.368"/><path d="m459.61 199.98-28.909 12.369"/></g><g style="fill:none;stroke:#474747;stroke-linecap:round;stroke-linejoin:round;stroke-miterlimit:10;stroke-width:15"><path d="m432.399 359.06 29.188 11.696"/><path d="m47.321 204.754 29.187 11.696"/></g><g><path d="m118.901 152.202-56.987-56.986" style="fill:none;stroke:#474747;stroke-linecap:round;stroke-linejoin:round;stroke-miterlimit:10;stroke-width:15"/></g><g><path d="m254.454 96.054v-73.018" style="fill:none;stroke:#474747;stroke-linecap:round;stroke-linejoin:round;stroke-miterlimit:10;stroke-width:15"/></g><g><path d="m180.32 110.969-12.16-28.997" style="fill:none;stroke:#474747;stroke-linecap:round;stroke-linejoin:round;stroke-miterlimit:10;stroke-width:15"/></g><g><path d="m327.039 110.328 11.906-29.103" style="fill:none;stroke:#474747;stroke-linecap:round;stroke-linejoin:round;stroke-miterlimit:10;stroke-width:15"/></g></g></svg>