<?xml version="1.0" encoding="UTF-8" standalone="no"?>
<!-- Created with Inkscape (http://www.inkscape.org/) -->

<svg
   xmlns:dc="http://purl.org/dc/elements/1.1/"
   xmlns:cc="http://creativecommons.org/ns#"
   xmlns:rdf="http://www.w3.org/1999/02/22-rdf-syntax-ns#"
   xmlns:svg="http://www.w3.org/2000/svg"
   xmlns="http://www.w3.org/2000/svg"
   xmlns:sodipodi="http://sodipodi.sourceforge.net/DTD/sodipodi-0.dtd"
   xmlns:inkscape="http://www.inkscape.org/namespaces/inkscape"
   width="199.6006"
   height="265.57602"
   id="svg2"
   version="1.1"
   inkscape:version="0.47pre4 r22446"
   sodipodi:docname="New document 1">
  <defs
     id="defs4">
    <inkscape:perspective
       sodipodi:type="inkscape:persp3d"
       inkscape:vp_x="0 : 526.18109 : 1"
       inkscape:vp_y="0 : 1000 : 0"
       inkscape:vp_z="744.09448 : 526.18109 : 1"
       inkscape:persp3d-origin="372.04724 : 350.78739 : 1"
       id="perspective10" />
    <inkscape:perspective
       id="perspective2884"
       inkscape:persp3d-origin="0.5 : 0.33333333 : 1"
       inkscape:vp_z="1 : 0.5 : 1"
       inkscape:vp_y="0 : 1000 : 0"
       inkscape:vp_x="0 : 0.5 : 1"
       sodipodi:type="inkscape:persp3d" />
  </defs>
  <sodipodi:namedview
     id="base"
     pagecolor="#ffffff"
     bordercolor="#666666"
     borderopacity="1.0"
     inkscape:pageopacity="0.0"
     inkscape:pageshadow="2"
     inkscape:zoom="0.44566406"
     inkscape:cx="104.27496"
     inkscape:cy="44.515764"
     inkscape:document-units="px"
     inkscape:current-layer="layer1"
     showgrid="false"
     inkscape:window-width="1366"
     inkscape:window-height="720"
     inkscape:window-x="-4"
     inkscape:window-y="-3"
     inkscape:window-maximized="1" />
  <metadata
     id="metadata7">
    <rdf:RDF>
      <cc:Work
         rdf:about="">
        <dc:format>image/svg+xml</dc:format>
        <dc:type
           rdf:resource="http://purl.org/dc/dcmitype/StillImage" />
        <dc:title></dc:title>
      </cc:Work>
    </rdf:RDF>
  </metadata>
  <g
     inkscape:label="Layer 1"
     inkscape:groupmode="layer"
     id="layer1"
     transform="translate(-267.77229,-394.87454)">
    <path
       style="fill:#000000"
       d="m 356.65516,646.66251 0,-13.78801 -4.75,-0.0131 c -7.17734,-0.0198 -21.86082,-3.35066 -30.34949,-6.8845 -22.58846,-9.4036 -39.92594,-27.97891 -48.01294,-51.44089 -9.07067,-26.31582 -5.15459,-59.4487 9.66036,-81.73358 14.10128,-21.21134 37.6024,-35.47855 64.85084,-39.37005 l 8.10123,-1.15698 0.26843,-23.20043 0.26843,-23.20043 -42.51843,0 c -41.1851,0 -42.58115,-0.0627 -44.51843,-2 -2.5955,-2.5955 -2.52344,-4.15962 0.31445,-6.82569 2.30877,-2.16897 2.43021,-2.17431 49.48467,-2.17431 l 47.17021,0 0.26534,28.75 0.26533,28.75 7.98754,0.72371 c 33.23074,3.01085 65.28827,24.69319 80.57347,54.49644 7.95835,15.51728 12.63966,36.64503 11.48199,51.82071 -3.09224,40.53557 -23.96665,71.84207 -59.08965,88.61996 -11.88441,5.67705 -28.37383,10.17742 -42.20335,11.51832 l -9.25,0.89688 0,-13.78801 z m 28,-0.98304 c 9.66005,-2.51378 19.36575,-6.60487 28.34589,-11.94819 9.37471,-5.5781 24.83634,-21.0993 30.24027,-30.35678 24.2861,-41.60452 14.40962,-94.00448 -22.93838,-121.70028 -13.45389,-9.97687 -30.74387,-16.80125 -46.50067,-18.35388 l -7.14711,-0.70426 0,8.53537 0,8.53537 5.25,0.68439 c 2.8875,0.37641 9.27561,2.01458 14.19579,3.64037 39.44174,13.03287 59.66814,54.82138 46.03648,95.1131 -7.55573,22.33285 -28.46993,42.13061 -51.98227,49.20738 -4.4,1.32432 -9.2375,2.67171 -10.75,2.9942 -2.74061,0.58434 -2.75,0.61563 -2.75,9.16113 l 0,8.57479 5.25,-0.71552 c 2.8875,-0.39353 8.625,-1.59377 12.75,-2.66719 z m -28.5,-33.71227 0,-10.37991 -8.75605,-1.77271 c -23.26676,-4.71049 -41.60753,-21.53791 -46.80182,-42.94008 -1.80963,-7.45628 -1.60619,-22.08099 0.41734,-30 5.38519,-21.07482 19.71441,-36.38257 40.75613,-43.53932 3.97909,-1.35337 8.24408,-2.46068 9.47777,-2.46068 5.02854,0 5.40663,-0.67687 5.40663,-9.67894 l 0,-8.46497 -5.75,0.69829 c -15.34305,1.8633 -32.80191,9.27276 -44.40936,18.84713 -24.25788,20.00903 -33.86704,56.65098 -23.22976,88.58041 9.17824,27.54987 33.94471,47.52986 63.19931,50.98513 10.38548,1.22662 9.68981,1.93554 9.68981,-9.87435 z m 25.14085,4.97125 c 20.77037,-8.04315 37.72355,-26.73533 42.74338,-47.12784 2.04011,-8.28774 2.08929,-23.6531 0.10074,-31.47601 -5.54338,-21.80751 -23.73386,-40.19381 -45.48497,-45.97462 -3.025,-0.80396 -6.9625,-1.46708 -8.75,-1.47361 l -3.25,-0.0119 0,6.7712 0,6.7712 6.16123,1.1709 c 8.50955,1.61717 18.35345,6.70614 24.11285,12.46555 17.21136,17.21135 15.74896,50.72573 -3.034,69.53127 -5.89223,5.89931 -12.13144,9.41721 -21.14807,11.92405 l -6.09201,1.69373 0,9.94734 0,9.94734 3.75,-0.6967 c 2.0625,-0.38318 6.96338,-1.94105 10.89085,-3.46193 z m -24.87868,-63.89703 c 0.21842,-30.96505 0.0331,-37.16692 -1.11045,-37.16692 -1.7397,0 -8.34254,4.45248 -10.85264,7.31824 -2.57893,2.94433 -6.63593,11.42219 -7.41194,15.48862 -0.85667,4.48911 -4.52796,6.90564 -8.05197,5.29999 -2.38417,-1.0863 -2.5461,-1.55989 -2.10455,-6.15512 1.21336,-12.62771 13.0838,-28.05731 24.30705,-31.59513 l 5.46233,-1.72184 0,-6.81738 c 0,-7.74721 0.0203,-7.73415 -8.5,-5.45782 -18.66167,4.98572 -32.11287,18.53878 -36.99239,37.27252 -3.04121,11.67601 -1.36064,26.35531 4.18352,36.54175 3.33146,6.12099 12.45406,14.86099 18.86281,18.0717 7.23301,3.62365 17.97141,6.84217 20.94606,6.27797 0.6397,-0.12133 1.09446,-13.58102 1.26217,-37.35658 z m 18.74713,34.74372 c 21.0647,-7.88132 30.77598,-41.27025 17.18594,-59.088 -5.22229,-6.84687 -12.2026,-10.87863 -22.94524,-13.25295 l -2.75,-0.60779 0,37.51905 c 0,42.29719 -0.8118,38.91716 8.5093,35.42969 z"
       id="path3668" />
  </g>
</svg>
